 http://desibbrg.org/images/66952052392581364616.gif 
http://desibbrg.org/images/24061508759118591339.jpg 
http://desibbrg.org/images/33765842095014469762.jpg

Media Info - 
Video
ID : 0
Format : MPEG-4 Visual
Format settings, BVOP : 1
Format settings, QPel : No
Format settings, GMC : No warppoints
Format settings, Matrix : Default (H.263)
Muxing mode : Packed bitstream
Codec ID : DX50
Codec ID/Hint : DivX 5
Duration : 2h 13mn
Bit rate : 691 Kbps
Width : 620 pixels
Height : 304 pixels
Display aspect ratio : 2.039
Frame rate : 25.000 fps
Color space : YUV
Chroma subsampling : 4:2:0
Bit depth : 8 bits
Scan type : Progressive
Compression mode : Lossy
Bits/(Pixel*Frame) : 0.147
Stream size : 662 MiB (83%)
Title : Video
Writing library : DivX 3013

Audio
ID : 1
Format : MPEG Audio
Format version : Version 1
Format profile : Layer 3
Codec ID : 55
Codec ID/Hint : MP3
Duration : 2h 13mn
Bit rate mode : Constant
Bit rate : 128 Kbps
Channel(s) : 2 channels
Sampling rate : 48.0 KHz
Compression mode : Lossy
Stream size : 123 MiB (15%)
Alignment : Split accross interleaves
Interleave, duration : 40 ms (1.00 video frame)
Interleave, preload duration : 500 ms
Title : Audio


Ripper : @gent

Seeding 24x7... Extreme Seeding...


Enjoy!
